<svg width="224" height="23" viewBox="0 0 224 23" fill="none" xmlns="http://www.w3.org/2000/svg">
<path d="M2.51172 22L4.25488 13.8701L0.753906 0.583984H4.26953L6.55469 10.3691L12.9121 0.583984H16.8232L7.68262 13.9141L5.9834 22H2.51172Z" fill="#3E2768"/>
<path d="M25.4813 22.293C23.7528 22.293 22.2977 21.9561 21.1161 21.2822C19.9442 20.5986 19.0555 19.6367 18.4501 18.3965C17.8544 17.1562 17.5565 15.7061 17.5565 14.0459C17.5565 12.874 17.6591 11.7266 17.8641 10.6035C18.079 9.4707 18.3915 8.3916 18.8016 7.36621C19.2118 6.34082 19.7245 5.39355 20.3397 4.52441C20.9647 3.65527 21.6874 2.90332 22.5077 2.26855C23.328 1.62402 24.246 1.12598 25.2616 0.774414C26.287 0.422852 27.4052 0.24707 28.6161 0.24707C31.1161 0.24707 33.0302 0.984375 34.3583 2.45898C35.6962 3.93359 36.3651 5.93555 36.3651 8.46484C36.3651 9.63672 36.2675 10.7939 36.0722 11.9365C35.8866 13.0693 35.5936 14.1533 35.1932 15.1885C34.8026 16.2139 34.3095 17.1611 33.7138 18.0303C33.118 18.8896 32.4149 19.6367 31.6044 20.2715C30.8036 20.9062 29.8905 21.4043 28.8651 21.7656C27.8495 22.1172 26.7216 22.293 25.4813 22.293ZM25.6864 19.29C26.3993 19.29 27.0682 19.1631 27.6932 18.9092C28.3182 18.6553 28.8895 18.2988 29.4071 17.8398C29.9345 17.3711 30.4032 16.8096 30.8134 16.1553C31.2333 15.501 31.5848 14.7734 31.868 13.9727C32.161 13.1719 32.3856 12.3125 32.5419 11.3945C32.6981 10.4668 32.7763 9.5 32.7763 8.49414C32.7763 6.86328 32.3905 5.5791 31.619 4.6416C30.8573 3.7041 29.7684 3.23535 28.3524 3.23535C27.62 3.23535 26.9315 3.36719 26.287 3.63086C25.6522 3.88477 25.0663 4.25586 24.5292 4.74414C23.9921 5.22266 23.5136 5.79395 23.0936 6.45801C22.6835 7.1123 22.3319 7.83984 22.0389 8.64062C21.746 9.44141 21.5214 10.2959 21.3651 11.2041C21.2186 12.1025 21.1454 13.04 21.1454 14.0166C21.1454 15.1299 21.3212 16.082 21.6727 16.873C22.0341 17.6641 22.5516 18.2646 23.2255 18.6748C23.9091 19.085 24.7294 19.29 25.6864 19.29Z" fill="#3E2768"/>
<path d="M47.7332 22.293C46.2683 22.293 45.0379 22.0537 44.0418 21.5752C43.0457 21.0967 42.2986 20.4131 41.8005 19.5244C41.3025 18.626 41.0535 17.5566 41.0535 16.3164C41.0535 15.9941 41.073 15.6133 41.1121 15.1738C41.1609 14.7344 41.2341 14.2949 41.3318 13.8555L44.1589 0.583984H47.6306L44.8035 13.8848C44.7156 14.2852 44.6423 14.6855 44.5838 15.0859C44.5349 15.4863 44.5105 15.8281 44.5105 16.1113C44.5105 17.1172 44.8035 17.8984 45.3894 18.4551C45.9851 19.0117 46.8689 19.29 48.0408 19.29C49.0759 19.29 49.9353 19.1045 50.6189 18.7334C51.3025 18.3525 51.8543 17.7861 52.2742 17.0342C52.7039 16.2822 53.0359 15.3496 53.2703 14.2363L56.1707 0.583984H59.6423L56.6834 14.5586C56.3513 16.1113 55.8289 17.4688 55.116 18.6309C54.4031 19.793 53.4461 20.6963 52.2449 21.3408C51.0437 21.9756 49.5398 22.293 47.7332 22.293Z" fill="#3E2768"/>
<path d="M61.8698 22L66.3961 0.583984H71.362C73.5299 0.583984 75.1998 1.04297 76.3717 1.96094C77.5436 2.86914 78.1295 4.28027 78.1295 6.19434C78.1295 7.28809 77.9342 8.26465 77.5436 9.12402C77.1627 9.9834 76.5963 10.7158 75.8444 11.3213C75.0924 11.917 74.1647 12.3809 73.0612 12.7129L76.7379 22H72.9586L69.8825 13.416H67.1432L65.3268 22H61.8698ZM67.7584 10.5156H69.6188C70.4293 10.5156 71.1422 10.4229 71.7575 10.2373C72.3825 10.0518 72.9 9.78809 73.3102 9.44629C73.7301 9.09473 74.0426 8.66504 74.2477 8.15723C74.4625 7.63965 74.57 7.05859 74.57 6.41406C74.57 5.38867 74.277 4.65137 73.6911 4.20215C73.1051 3.74316 72.2067 3.51367 70.9957 3.51367H69.2526L67.7584 10.5156Z" fill="#3E2768"/>
<path d="M92.2963 22L91.5785 0.583984H96.9984L96.852 11.3213C96.8422 12.1807 96.8129 13.0693 96.7641 13.9873C96.725 14.9053 96.6664 15.6963 96.5883 16.3604H96.7055C96.9105 15.6963 97.1742 14.9639 97.4965 14.1631C97.8187 13.3623 98.1361 12.6055 98.4486 11.8926L103.356 0.583984H108.278V12.1855C108.278 12.6836 108.268 13.3672 108.248 14.2363C108.229 15.1055 108.19 15.8916 108.131 16.5947H108.248C108.405 16.0771 108.595 15.4766 108.82 14.793C109.044 14.1094 109.279 13.4209 109.523 12.7275C109.777 12.0244 110.011 11.3945 110.226 10.8379L114.284 0.583984H119.953L110.651 22H103.898V13.7822C103.898 13.2646 103.903 12.7324 103.912 12.1855C103.932 11.6387 103.956 11.0869 103.986 10.5303C104.015 9.97363 104.049 9.42676 104.088 8.88965H103.956C103.654 9.81738 103.336 10.7256 103.004 11.6143C102.672 12.4932 102.321 13.3672 101.95 14.2363L98.6537 22H92.2963Z" fill="#3E2768"/>
<path d="M119.397 22L123.923 0.583984H136.638L135.686 5.22754H128.699L128.01 8.59668H134.514L133.459 13.2402H126.955L126.12 17.2832H133.108L132.112 22H119.397Z" fill="#3E2768"/>
<path d="M137.767 22L142.293 0.583984H149.427C150.96 0.583984 152.2 0.78418 153.148 1.18457C154.095 1.58496 154.788 2.13672 155.228 2.83984C155.667 3.54297 155.887 4.34863 155.887 5.25684C155.887 6.22363 155.716 7.07324 155.374 7.80566C155.042 8.52832 154.549 9.13379 153.895 9.62207C153.25 10.1104 152.464 10.4961 151.536 10.7793V10.8965C152.396 11.1797 153.079 11.6777 153.587 12.3906C154.095 13.1035 154.349 13.9678 154.349 14.9834C154.349 16.6533 153.963 18.0059 153.192 19.041C152.43 20.0664 151.4 20.8184 150.101 21.2969C148.812 21.7656 147.371 22 145.779 22H137.767ZM144.446 17.5322H145.648C146.234 17.5322 146.746 17.4199 147.186 17.1953C147.625 16.9707 147.967 16.6729 148.211 16.3018C148.465 15.9209 148.592 15.501 148.592 15.042C148.592 14.3682 148.431 13.8652 148.109 13.5332C147.786 13.2012 147.22 13.0352 146.409 13.0352H145.413L144.446 17.5322ZM146.277 8.80176H147.332C148.006 8.80176 148.528 8.7041 148.9 8.50879C149.28 8.30371 149.549 8.02539 149.705 7.67383C149.861 7.32227 149.94 6.91699 149.94 6.45801C149.94 5.97949 149.788 5.61328 149.486 5.35938C149.183 5.0957 148.714 4.96387 148.079 4.96387H147.156L146.277 8.80176Z" fill="#3E2768"/>
<path d="M163.944 22.293C162.88 22.293 161.864 22.1709 160.898 21.9268C159.94 21.6826 159.115 21.3359 158.422 20.8867V15.7598C159.203 16.2383 160.121 16.6631 161.176 17.0342C162.24 17.4053 163.222 17.5908 164.12 17.5908C164.481 17.5908 164.799 17.5518 165.072 17.4736C165.346 17.3955 165.575 17.2832 165.761 17.1367C165.946 16.9902 166.083 16.8096 166.171 16.5947C166.269 16.3701 166.317 16.1211 166.317 15.8477C166.317 15.4863 166.21 15.1494 165.995 14.8369C165.78 14.5244 165.487 14.2168 165.116 13.9141C164.755 13.6016 164.355 13.2646 163.915 12.9033C163.261 12.3662 162.685 11.8047 162.187 11.2188C161.698 10.6328 161.317 9.99316 161.044 9.2998C160.78 8.59668 160.648 7.81055 160.648 6.94141C160.648 5.97461 160.829 5.08594 161.19 4.27539C161.552 3.46484 162.064 2.76172 162.729 2.16602C163.402 1.56055 164.203 1.09668 165.131 0.774414C166.068 0.442383 167.104 0.276367 168.236 0.276367C169.389 0.276367 170.502 0.413086 171.576 0.686523C172.66 0.959961 173.647 1.3457 174.535 1.84375L172.558 6.19434C171.874 5.85254 171.156 5.55469 170.404 5.30078C169.662 5.03711 168.959 4.90527 168.295 4.90527C167.885 4.90527 167.553 4.95898 167.299 5.06641C167.045 5.16406 166.85 5.2959 166.713 5.46191C166.576 5.61816 166.479 5.78906 166.42 5.97461C166.371 6.16016 166.347 6.34082 166.347 6.5166C166.347 6.81934 166.41 7.1123 166.537 7.39551C166.674 7.66895 166.913 7.97656 167.255 8.31836C167.597 8.65039 168.08 9.05078 168.705 9.51953C169.496 10.1055 170.141 10.7012 170.639 11.3066C171.147 11.9121 171.518 12.5518 171.752 13.2256C171.986 13.8896 172.104 14.6221 172.104 15.4229C172.104 16.4873 171.923 17.4443 171.562 18.2939C171.2 19.1436 170.673 19.8662 169.98 20.4619C169.286 21.0576 168.432 21.5117 167.416 21.8242C166.41 22.1367 165.253 22.293 163.944 22.293Z" fill="#3E2768"/>
<path d="M176.206 22L180.732 0.583984H186.46L181.934 22H176.206Z" fill="#3E2768"/>
<path d="M191.28 22L194.752 5.31543H190.108L191.119 0.583984H206.178L205.137 5.31543H200.479L197.008 22H191.28Z" fill="#3E2768"/>
<path d="M206.354 22L210.881 0.583984H223.595L222.643 5.22754H215.656L214.967 8.59668H221.471L220.417 13.2402H213.913L213.078 17.2832H220.065L219.069 22H206.354Z" fill="#3E2768"/>
</svg>
